ffprobe version n2.6.1 Copyright (c) 2007-2015 the FFmpeg developers
  built with gcc 4.8 (Ubuntu 4.8.2-19ubuntu1)
  configuration: --prefix=/opt/ffmpeg --extra-cflags=-I/opt/ffmpeg/include --extra-ldflags=-L/opt/ffmpeg/lib --extra-libs=-ldl --enable-gpl --enable-libass --enable-libfdk-aac --enable-libfreetype --enable-libmp3lame --enable-libtheora --enable-libvorbis --enable-libvpx --enable-libx264 --enable-libx265 --enable-nonfree
  libavutil      54. 20.100 / 54. 20.100
  libavcodec     56. 26.100 / 56. 26.100
  libavformat    56. 25.101 / 56. 25.101
  libavdevice    56.  4.100 / 56.  4.100
  libavfilter     5. 11.102 /  5. 11.102
  libswscale      3.  1.101 /  3.  1.101
  libswresample   1.  1.100 /  1.  1.100
  libpostproc    53.  3.100 / 53.  3.100
[aac @ 0x24a4da0] This stream seems to incorrectly report its last channel as LFE[3], mapping to LFE[0]
Input #0, mov,mp4,m4a,3gp,3g2,mj2, from 'ElephantsDream_720p_DivXPlus_512kb.mp4':
  Metadata:
    major_brand     : isom
    minor_version   : 512
    compatible_brands: isomiso2avc1mp41
    creation_time   : 1970-01-01 00:00:00
    title           : ElephantsDream_720p_\[DivXPlus\] - http://www.archive.org/details/ElephantsDream_628
    encoder         : Lavf52.38.0
    comment         : license:http://creativecommons.org/licenses/by/3.0/us/
  Duration: 00:10:58.15, start: 0.000000, bitrate: 894 kb/s
    Stream #0:0(eng): Video: h264 (Constrained Baseline) (avc1 / 0x31637661), yuv420p, 416x240 [SAR 40:39 DAR 16:9], 511 kb/s, SAR 213:208 DAR 71:40, 23.97 fps, 24 tbr, 24 tbn, 48 tbc (default)
    Metadata:
      creation_time   : 1970-01-01 00:00:00
      handler_name    : VideoHandler
    Stream #0:1(eng): Audio: aac (LC) (mp4a / 0x6134706D), 48000 Hz, 5.1, fltp, 380 kb/s (default)
    Metadata:
      creation_time   : 1970-01-01 00:00:00
      handler_name    : SoundHandler
